<svg width="34" height="141" viewBox="0 0 34 141" fill="none" xmlns="http://www.w3.org/2000/svg">
<mask id="path-1-outside-1_6_8" maskUnits="userSpaceOnUse" x="1.97998" y="0.380005" width="32" height="141" fill="black">
<rect fill="white" x="1.97998" y="0.380005" width="32" height="141"/>
<path d="M2.97998 127.644L3.29998 127.644L3.29998 137.724L12.9 137.724L12.9 128.38L13.22 128.38L13.22 137.724L25.06 137.724L25.06 126.94L25.38 126.94L25.38 140.38L2.97998 140.38L2.97998 127.644Z"/>
<path d="M25.38 124.688L25.124 124.688C25.124 124.24 24.9533 123.792 24.612 123.344C24.2706 122.874 23.9293 122.522 23.588 122.288L17.7 118.288L9.37998 123.984L9.37998 121.648L16.516 116.752L9.37998 112.016L9.37998 111.696L16.74 116.624L25.38 110.672L25.38 113.008L17.892 118.16L23.076 121.616C23.14 121.658 23.2253 121.712 23.332 121.776C23.4386 121.84 23.62 121.978 23.876 122.192C24.132 122.405 24.356 122.629 24.548 122.864C25.1026 123.504 25.38 124.112 25.38 124.688Z"/>
<path d="M9.37998 107.958L9.37998 105.718L13.348 105.718C12.3666 105.355 11.4386 104.683 10.564 103.702C9.68932 102.72 9.25198 101.611 9.25198 100.374C9.25198 96.0428 11.7906 93.8775 16.868 93.8775C22.628 93.8775 25.508 96.6722 25.508 102.262C25.508 103.264 25.2733 104.416 24.804 105.718L33.38 105.718L33.38 107.958L9.37998 107.958ZM9.50798 100.406C9.50798 101.728 10.084 102.923 11.236 103.99C12.3666 105.056 13.3906 105.632 14.308 105.718L24.516 105.718C25.0066 104.416 25.252 103.275 25.252 102.294C25.252 98.1762 22.4466 96.1175 16.836 96.1175C11.9506 96.1175 9.50798 97.5468 9.50798 100.406Z"/>
<path d="M17.572 89.1328C20.2173 89.1328 22.1587 88.6741 23.396 87.7568C24.6333 86.8181 25.252 85.5914 25.252 84.0768C25.252 81.9434 24.932 80.0448 24.292 78.3808L24.516 78.2848C25.1773 79.9914 25.508 81.9221 25.508 84.0768C25.508 86.2101 24.868 87.9488 23.588 89.2928C22.308 90.6368 20.3346 91.3088 17.668 91.3088C15.0013 91.3088 12.932 90.6048 11.46 89.1968C9.98798 87.7888 9.25198 85.9968 9.25198 83.8208C9.25198 82.0714 9.77465 80.5994 10.82 79.4048C11.8653 78.2101 13.412 77.6128 15.46 77.6128C15.5666 77.6128 15.6733 77.6128 15.78 77.6128L15.78 89.0368C16.356 89.1008 16.9533 89.1328 17.572 89.1328ZM15.524 79.7888C13.476 79.8101 11.9613 80.2048 10.98 80.9728C9.99865 81.7408 9.50798 82.7328 9.50798 83.9488C9.50798 85.1648 10.0413 86.2528 11.108 87.2128C12.1746 88.1514 13.6466 88.7488 15.524 89.0048L15.524 79.7888Z"/>
<path d="M10.756 70.1968L10.084 70.1968C10.468 71.1568 11.2466 72.0314 12.42 72.8208C13.572 73.6101 14.66 74.0261 15.684 74.0688L25.38 74.0688L25.38 76.3088L9.37998 76.3088L9.37998 74.0688L14.468 74.0688C13.2306 73.7274 12.068 73.0768 10.98 72.1168C9.87065 71.1568 9.29465 70.0688 9.25198 68.8528L9.25198 68.7248C9.25198 68.2981 9.40132 67.9461 9.69998 67.6688C9.97732 67.3701 10.3293 67.2208 10.756 67.2208C11.1826 67.2208 11.5346 67.3701 11.812 67.6688C12.0893 67.9461 12.228 68.2981 12.228 68.7248C12.228 69.1514 12.0893 69.5034 11.812 69.7808C11.5346 70.0581 11.1826 70.1968 10.756 70.1968Z"/>
<path d="M9.63598 64.9688L9.37998 64.9688L9.37998 64.2968L6.17998 64.2968L6.17998 62.0568L9.37998 62.0568L9.37998 57.1608L9.63598 57.1608L9.63598 62.0568L21.284 62.0568C22.6706 62.0568 23.6733 61.9074 24.292 61.6088C24.9107 61.2888 25.22 60.6381 25.22 59.6568C25.22 58.6541 25.0173 57.6408 24.612 56.6168L24.868 56.5208C25.2733 57.5874 25.476 58.8141 25.476 60.2008C25.476 61.5661 25.1986 62.5901 24.644 63.2728C24.068 63.9554 22.9373 64.2968 21.252 64.2968L9.63598 64.2968L9.63598 64.9688Z"/>
<path d="M25.38 41.0013L25.38 53.1613L2.97998 53.1613L2.97998 50.5053L25.06 50.5053L25.06 41.0013L25.38 41.0013Z"/>
<path d="M25.38 35.7948C25.38 36.6694 25.188 37.3414 24.804 37.8108C24.42 38.2588 24.036 38.4934 23.652 38.5148L23.108 38.5468L9.37998 38.5468L9.37998 36.3068L23.108 36.3068C23.7267 36.3068 24.2066 36.1894 24.548 35.9548C24.868 35.6988 25.0386 35.4534 25.06 35.2188L25.124 34.8348L25.124 33.8428L25.38 33.8428L25.38 35.7948ZM5.79598 38.3548C5.53998 38.6107 5.21998 38.7388 4.83598 38.7388C4.45198 38.7388 4.13198 38.6107 3.87598 38.3548C3.59865 38.0988 3.45998 37.7788 3.45998 37.3948C3.45998 37.0107 3.59865 36.6908 3.87598 36.4348C4.13198 36.1574 4.45198 36.0188 4.83598 36.0188C5.21998 36.0188 5.53998 36.1574 5.79598 36.4348C6.05198 36.6908 6.17998 37.0107 6.17998 37.3948C6.17998 37.7788 6.05198 38.0988 5.79598 38.3548Z"/>
<path d="M25.38 18.6225C25.38 19.4972 25.188 20.1692 24.804 20.6385C24.42 21.0865 24.036 21.3212 23.652 21.3425L23.108 21.3745L13.06 21.3745C11.3746 21.3745 10.2973 21.8118 9.82798 22.6865C9.61465 23.1345 9.50798 23.6892 9.50798 24.3505C9.50798 25.7158 10.052 26.9425 11.14 28.0305C12.2066 29.1185 13.1666 29.6625 14.02 29.6625L25.38 29.6625L25.38 31.9025L9.37998 31.9025L9.37998 29.6625L13.028 29.6625C12.1106 29.2998 11.2573 28.6278 10.468 27.6465C9.65732 26.6652 9.25198 25.5878 9.25198 24.4145C9.25198 23.2412 9.36932 22.2918 9.60398 21.5665C9.81732 20.8198 10.1266 20.2758 10.532 19.9345C11.1933 19.4012 12.0466 19.1345 13.092 19.1345L23.108 19.1345C23.7267 19.1345 24.2066 19.0172 24.548 18.7825C24.868 18.5265 25.0387 18.2705 25.06 18.0145L25.124 17.6625L25.124 16.6705L25.38 16.6705L25.38 18.6225Z"/>
<path d="M17.572 13.1953C20.2173 13.1953 22.1587 12.7366 23.396 11.8193C24.6333 10.8806 25.252 9.65392 25.252 8.13925C25.252 6.00592 25.02 4.284 24.38 2.62L24.516 2.34726C25.1773 4.05392 25.38 5.96533 25.38 8.12C25.38 10.2533 24.868 12.0113 23.588 13.3553C22.308 14.6993 20.3346 15.3713 17.668 15.3713C15.0013 15.3713 12.932 14.6673 11.46 13.2593C9.98798 11.8513 9.25198 10.0592 9.25198 7.88326C9.25198 6.13393 9.77465 4.66193 10.82 3.46725C11.8653 2.27258 13.412 1.67525 15.46 1.67525C15.5667 1.67525 15.6733 1.67525 15.78 1.67525L15.78 13.0993C16.356 13.1633 16.9533 13.1953 17.572 13.1953ZM15.524 3.85126C13.476 3.87259 11.9613 4.26724 10.98 5.03525C9.99865 5.80325 9.50798 6.79526 9.50798 8.01126C9.50798 9.22726 10.0413 10.3152 11.108 11.2753C12.1746 12.2139 13.6466 12.8113 15.524 13.0673L15.524 3.85126Z"/>
</mask>
<path d="M2.97998 127.644L3.29998 127.644L3.29998 137.724L12.9 137.724L12.9 128.38L13.22 128.38L13.22 137.724L25.06 137.724L25.06 126.94L25.38 126.94L25.38 140.38L2.97998 140.38L2.97998 127.644Z" fill="#F1F1F1"/>
<path d="M25.38 124.688L25.124 124.688C25.124 124.24 24.9533 123.792 24.612 123.344C24.2706 122.874 23.9293 122.522 23.588 122.288L17.7 118.288L9.37998 123.984L9.37998 121.648L16.516 116.752L9.37998 112.016L9.37998 111.696L16.74 116.624L25.38 110.672L25.38 113.008L17.892 118.16L23.076 121.616C23.14 121.658 23.2253 121.712 23.332 121.776C23.4386 121.84 23.62 121.978 23.876 122.192C24.132 122.405 24.356 122.629 24.548 122.864C25.1026 123.504 25.38 124.112 25.38 124.688Z" fill="#F1F1F1"/>
<path d="M9.37998 107.958L9.37998 105.718L13.348 105.718C12.3666 105.355 11.4386 104.683 10.564 103.702C9.68932 102.72 9.25198 101.611 9.25198 100.374C9.25198 96.0428 11.7906 93.8775 16.868 93.8775C22.628 93.8775 25.508 96.6722 25.508 102.262C25.508 103.264 25.2733 104.416 24.804 105.718L33.38 105.718L33.38 107.958L9.37998 107.958ZM9.50798 100.406C9.50798 101.728 10.084 102.923 11.236 103.99C12.3666 105.056 13.3906 105.632 14.308 105.718L24.516 105.718C25.0066 104.416 25.252 103.275 25.252 102.294C25.252 98.1762 22.4466 96.1175 16.836 96.1175C11.9506 96.1175 9.50798 97.5468 9.50798 100.406Z" fill="#F1F1F1"/>
<path d="M17.572 89.1328C20.2173 89.1328 22.1587 88.6741 23.396 87.7568C24.6333 86.8181 25.252 85.5914 25.252 84.0768C25.252 81.9434 24.932 80.0448 24.292 78.3808L24.516 78.2848C25.1773 79.9914 25.508 81.9221 25.508 84.0768C25.508 86.2101 24.868 87.9488 23.588 89.2928C22.308 90.6368 20.3346 91.3088 17.668 91.3088C15.0013 91.3088 12.932 90.6048 11.46 89.1968C9.98798 87.7888 9.25198 85.9968 9.25198 83.8208C9.25198 82.0714 9.77465 80.5994 10.82 79.4048C11.8653 78.2101 13.412 77.6128 15.46 77.6128C15.5666 77.6128 15.6733 77.6128 15.78 77.6128L15.78 89.0368C16.356 89.1008 16.9533 89.1328 17.572 89.1328ZM15.524 79.7888C13.476 79.8101 11.9613 80.2048 10.98 80.9728C9.99865 81.7408 9.50798 82.7328 9.50798 83.9488C9.50798 85.1648 10.0413 86.2528 11.108 87.2128C12.1746 88.1514 13.6466 88.7488 15.524 89.0048L15.524 79.7888Z" fill="#F1F1F1"/>
<path d="M10.756 70.1968L10.084 70.1968C10.468 71.1568 11.2466 72.0314 12.42 72.8208C13.572 73.6101 14.66 74.0261 15.684 74.0688L25.38 74.0688L25.38 76.3088L9.37998 76.3088L9.37998 74.0688L14.468 74.0688C13.2306 73.7274 12.068 73.0768 10.98 72.1168C9.87065 71.1568 9.29465 70.0688 9.25198 68.8528L9.25198 68.7248C9.25198 68.2981 9.40132 67.9461 9.69998 67.6688C9.97732 67.3701 10.3293 67.2208 10.756 67.2208C11.1826 67.2208 11.5346 67.3701 11.812 67.6688C12.0893 67.9461 12.228 68.2981 12.228 68.7248C12.228 69.1514 12.0893 69.5034 11.812 69.7808C11.5346 70.0581 11.1826 70.1968 10.756 70.1968Z" fill="#F1F1F1"/>
<path d="M9.63598 64.9688L9.37998 64.9688L9.37998 64.2968L6.17998 64.2968L6.17998 62.0568L9.37998 62.0568L9.37998 57.1608L9.63598 57.1608L9.63598 62.0568L21.284 62.0568C22.6706 62.0568 23.6733 61.9074 24.292 61.6088C24.9107 61.2888 25.22 60.6381 25.22 59.6568C25.22 58.6541 25.0173 57.6408 24.612 56.6168L24.868 56.5208C25.2733 57.5874 25.476 58.8141 25.476 60.2008C25.476 61.5661 25.1986 62.5901 24.644 63.2728C24.068 63.9554 22.9373 64.2968 21.252 64.2968L9.63598 64.2968L9.63598 64.9688Z" fill="#F1F1F1"/>
<path d="M25.38 41.0013L25.38 53.1613L2.97998 53.1613L2.97998 50.5053L25.06 50.5053L25.06 41.0013L25.38 41.0013Z" fill="#486EA7"/>
<path d="M25.38 35.7948C25.38 36.6694 25.188 37.3414 24.804 37.8108C24.42 38.2588 24.036 38.4934 23.652 38.5148L23.108 38.5468L9.37998 38.5468L9.37998 36.3068L23.108 36.3068C23.7267 36.3068 24.2066 36.1894 24.548 35.9548C24.868 35.6988 25.0386 35.4534 25.06 35.2188L25.124 34.8348L25.124 33.8428L25.38 33.8428L25.38 35.7948ZM5.79598 38.3548C5.53998 38.6107 5.21998 38.7388 4.83598 38.7388C4.45198 38.7388 4.13198 38.6107 3.87598 38.3548C3.59865 38.0988 3.45998 37.7788 3.45998 37.3948C3.45998 37.0107 3.59865 36.6908 3.87598 36.4348C4.13198 36.1574 4.45198 36.0188 4.83598 36.0188C5.21998 36.0188 5.53998 36.1574 5.79598 36.4348C6.05198 36.6908 6.17998 37.0107 6.17998 37.3948C6.17998 37.7788 6.05198 38.0988 5.79598 38.3548Z" fill="#F1F1F1"/>
<path d="M25.38 18.6225C25.38 19.4972 25.188 20.1692 24.804 20.6385C24.42 21.0865 24.036 21.3212 23.652 21.3425L23.108 21.3745L13.06 21.3745C11.3746 21.3745 10.2973 21.8118 9.82798 22.6865C9.61465 23.1345 9.50798 23.6892 9.50798 24.3505C9.50798 25.7158 10.052 26.9425 11.14 28.0305C12.2066 29.1185 13.1666 29.6625 14.02 29.6625L25.38 29.6625L25.38 31.9025L9.37998 31.9025L9.37998 29.6625L13.028 29.6625C12.1106 29.2998 11.2573 28.6278 10.468 27.6465C9.65732 26.6652 9.25198 25.5878 9.25198 24.4145C9.25198 23.2412 9.36932 22.2918 9.60398 21.5665C9.81732 20.8198 10.1266 20.2758 10.532 19.9345C11.1933 19.4012 12.0466 19.1345 13.092 19.1345L23.108 19.1345C23.7267 19.1345 24.2066 19.0172 24.548 18.7825C24.868 18.5265 25.0387 18.2705 25.06 18.0145L25.124 17.6625L25.124 16.6705L25.38 16.6705L25.38 18.6225Z" fill="#F1F1F1"/>
<path d="M17.572 13.1953C20.2173 13.1953 22.1587 12.7366 23.396 11.8193C24.6333 10.8806 25.252 9.65392 25.252 8.13925C25.252 6.00592 25.02 4.284 24.38 2.62L24.516 2.34726C25.1773 4.05392 25.38 5.96533 25.38 8.12C25.38 10.2533 24.868 12.0113 23.588 13.3553C22.308 14.6993 20.3346 15.3713 17.668 15.3713C15.0013 15.3713 12.932 14.6673 11.46 13.2593C9.98798 11.8513 9.25198 10.0592 9.25198 7.88326C9.25198 6.13393 9.77465 4.66193 10.82 3.46725C11.8653 2.27258 13.412 1.67525 15.46 1.67525C15.5667 1.67525 15.6733 1.67525 15.78 1.67525L15.78 13.0993C16.356 13.1633 16.9533 13.1953 17.572 13.1953ZM15.524 3.85126C13.476 3.87259 11.9613 4.26724 10.98 5.03525C9.99865 5.80325 9.50798 6.79526 9.50798 8.01126C9.50798 9.22726 10.0413 10.3152 11.108 11.2753C12.1746 12.2139 13.6466 12.8113 15.524 13.0673L15.524 3.85126Z" fill="#F1F1F1"/>
<path d="M2.97998 127.644L3.29998 127.644L3.29998 137.724L12.9 137.724L12.9 128.38L13.22 128.38L13.22 137.724L25.06 137.724L25.06 126.94L25.38 126.94L25.38 140.38L2.97998 140.38L2.97998 127.644Z" stroke="black" stroke-width="0.6" mask="url(#path-1-outside-1_6_8)"/>
<path d="M25.38 124.688L25.124 124.688C25.124 124.24 24.9533 123.792 24.612 123.344C24.2706 122.874 23.9293 122.522 23.588 122.288L17.7 118.288L9.37998 123.984L9.37998 121.648L16.516 116.752L9.37998 112.016L9.37998 111.696L16.74 116.624L25.38 110.672L25.38 113.008L17.892 118.16L23.076 121.616C23.14 121.658 23.2253 121.712 23.332 121.776C23.4386 121.84 23.62 121.978 23.876 122.192C24.132 122.405 24.356 122.629 24.548 122.864C25.1026 123.504 25.38 124.112 25.38 124.688Z" stroke="black" stroke-width="0.6" mask="url(#path-1-outside-1_6_8)"/>
<path d="M9.37998 107.958L9.37998 105.718L13.348 105.718C12.3666 105.355 11.4386 104.683 10.564 103.702C9.68932 102.72 9.25198 101.611 9.25198 100.374C9.25198 96.0428 11.7906 93.8775 16.868 93.8775C22.628 93.8775 25.508 96.6722 25.508 102.262C25.508 103.264 25.2733 104.416 24.804 105.718L33.38 105.718L33.38 107.958L9.37998 107.958ZM9.50798 100.406C9.50798 101.728 10.084 102.923 11.236 103.99C12.3666 105.056 13.3906 105.632 14.308 105.718L24.516 105.718C25.0066 104.416 25.252 103.275 25.252 102.294C25.252 98.1762 22.4466 96.1175 16.836 96.1175C11.9506 96.1175 9.50798 97.5468 9.50798 100.406Z" stroke="black" stroke-width="0.6" mask="url(#path-1-outside-1_6_8)"/>
<path d="M17.572 89.1328C20.2173 89.1328 22.1587 88.6741 23.396 87.7568C24.6333 86.8181 25.252 85.5914 25.252 84.0768C25.252 81.9434 24.932 80.0448 24.292 78.3808L24.516 78.2848C25.1773 79.9914 25.508 81.9221 25.508 84.0768C25.508 86.2101 24.868 87.9488 23.588 89.2928C22.308 90.6368 20.3346 91.3088 17.668 91.3088C15.0013 91.3088 12.932 90.6048 11.46 89.1968C9.98798 87.7888 9.25198 85.9968 9.25198 83.8208C9.25198 82.0714 9.77465 80.5994 10.82 79.4048C11.8653 78.2101 13.412 77.6128 15.46 77.6128C15.5666 77.6128 15.6733 77.6128 15.78 77.6128L15.78 89.0368C16.356 89.1008 16.9533 89.1328 17.572 89.1328ZM15.524 79.7888C13.476 79.8101 11.9613 80.2048 10.98 80.9728C9.99865 81.7408 9.50798 82.7328 9.50798 83.9488C9.50798 85.1648 10.0413 86.2528 11.108 87.2128C12.1746 88.1514 13.6466 88.7488 15.524 89.0048L15.524 79.7888Z" stroke="black" stroke-width="0.6" mask="url(#path-1-outside-1_6_8)"/>
<path d="M10.756 70.1968L10.084 70.1968C10.468 71.1568 11.2466 72.0314 12.42 72.8208C13.572 73.6101 14.66 74.0261 15.684 74.0688L25.38 74.0688L25.38 76.3088L9.37998 76.3088L9.37998 74.0688L14.468 74.0688C13.2306 73.7274 12.068 73.0768 10.98 72.1168C9.87065 71.1568 9.29465 70.0688 9.25198 68.8528L9.25198 68.7248C9.25198 68.2981 9.40132 67.9461 9.69998 67.6688C9.97732 67.3701 10.3293 67.2208 10.756 67.2208C11.1826 67.2208 11.5346 67.3701 11.812 67.6688C12.0893 67.9461 12.228 68.2981 12.228 68.7248C12.228 69.1514 12.0893 69.5034 11.812 69.7808C11.5346 70.0581 11.1826 70.1968 10.756 70.1968Z" stroke="black" stroke-width="0.6" mask="url(#path-1-outside-1_6_8)"/>
<path d="M9.63598 64.9688L9.37998 64.9688L9.37998 64.2968L6.17998 64.2968L6.17998 62.0568L9.37998 62.0568L9.37998 57.1608L9.63598 57.1608L9.63598 62.0568L21.284 62.0568C22.6706 62.0568 23.6733 61.9074 24.292 61.6088C24.9107 61.2888 25.22 60.6381 25.22 59.6568C25.22 58.6541 25.0173 57.6408 24.612 56.6168L24.868 56.5208C25.2733 57.5874 25.476 58.8141 25.476 60.2008C25.476 61.5661 25.1986 62.5901 24.644 63.2728C24.068 63.9554 22.9373 64.2968 21.252 64.2968L9.63598 64.2968L9.63598 64.9688Z" stroke="black" stroke-width="0.6" mask="url(#path-1-outside-1_6_8)"/>
<path d="M25.38 41.0013L25.38 53.1613L2.97998 53.1613L2.97998 50.5053L25.06 50.5053L25.06 41.0013L25.38 41.0013Z" stroke="black" stroke-width="0.6" mask="url(#path-1-outside-1_6_8)"/>
<path d="M25.38 35.7948C25.38 36.6694 25.188 37.3414 24.804 37.8108C24.42 38.2588 24.036 38.4934 23.652 38.5148L23.108 38.5468L9.37998 38.5468L9.37998 36.3068L23.108 36.3068C23.7267 36.3068 24.2066 36.1894 24.548 35.9548C24.868 35.6988 25.0386 35.4534 25.06 35.2188L25.124 34.8348L25.124 33.8428L25.38 33.8428L25.38 35.7948ZM5.79598 38.3548C5.53998 38.6107 5.21998 38.7388 4.83598 38.7388C4.45198 38.7388 4.13198 38.6107 3.87598 38.3548C3.59865 38.0988 3.45998 37.7788 3.45998 37.3948C3.45998 37.0107 3.59865 36.6908 3.87598 36.4348C4.13198 36.1574 4.45198 36.0188 4.83598 36.0188C5.21998 36.0188 5.53998 36.1574 5.79598 36.4348C6.05198 36.6908 6.17998 37.0107 6.17998 37.3948C6.17998 37.7788 6.05198 38.0988 5.79598 38.3548Z" stroke="black" stroke-width="0.6" mask="url(#path-1-outside-1_6_8)"/>
<path d="M25.38 18.6225C25.38 19.4972 25.188 20.1692 24.804 20.6385C24.42 21.0865 24.036 21.3212 23.652 21.3425L23.108 21.3745L13.06 21.3745C11.3746 21.3745 10.2973 21.8118 9.82798 22.6865C9.61465 23.1345 9.50798 23.6892 9.50798 24.3505C9.50798 25.7158 10.052 26.9425 11.14 28.0305C12.2066 29.1185 13.1666 29.6625 14.02 29.6625L25.38 29.6625L25.38 31.9025L9.37998 31.9025L9.37998 29.6625L13.028 29.6625C12.1106 29.2998 11.2573 28.6278 10.468 27.6465C9.65732 26.6652 9.25198 25.5878 9.25198 24.4145C9.25198 23.2412 9.36932 22.2918 9.60398 21.5665C9.81732 20.8198 10.1266 20.2758 10.532 19.9345C11.1933 19.4012 12.0466 19.1345 13.092 19.1345L23.108 19.1345C23.7267 19.1345 24.2066 19.0172 24.548 18.7825C24.868 18.5265 25.0387 18.2705 25.06 18.0145L25.124 17.6625L25.124 16.6705L25.38 16.6705L25.38 18.6225Z" stroke="black" stroke-width="0.6" mask="url(#path-1-outside-1_6_8)"/>
<path d="M17.572 13.1953C20.2173 13.1953 22.1587 12.7366 23.396 11.8193C24.6333 10.8806 25.252 9.65392 25.252 8.13925C25.252 6.00592 25.02 4.284 24.38 2.62L24.516 2.34726C25.1773 4.05392 25.38 5.96533 25.38 8.12C25.38 10.2533 24.868 12.0113 23.588 13.3553C22.308 14.6993 20.3346 15.3713 17.668 15.3713C15.0013 15.3713 12.932 14.6673 11.46 13.2593C9.98798 11.8513 9.25198 10.0592 9.25198 7.88326C9.25198 6.13393 9.77465 4.66193 10.82 3.46725C11.8653 2.27258 13.412 1.67525 15.46 1.67525C15.5667 1.67525 15.6733 1.67525 15.78 1.67525L15.78 13.0993C16.356 13.1633 16.9533 13.1953 17.572 13.1953ZM15.524 3.85126C13.476 3.87259 11.9613 4.26724 10.98 5.03525C9.99865 5.80325 9.50798 6.79526 9.50798 8.01126C9.50798 9.22726 10.0413 10.3152 11.108 11.2753C12.1746 12.2139 13.6466 12.8113 15.524 13.0673L15.524 3.85126Z" stroke="black" stroke-width="0.6" mask="url(#path-1-outside-1_6_8)"/>
<rect x="24.38" y="52.62" width="52" height="1" transform="rotate(-90 24.38 52.62)" fill="#486EA7"/>
<circle cx="3.88" cy="37.12" r="3.5" transform="rotate(-90 3.88 37.12)" fill="#486EA7"/>
</svg>
