<svg width="89" height="135" viewBox="0 0 89 135" fill="none" xmlns="http://www.w3.org/2000/svg">
<rect x="2.5" y="2.5" width="83" height="130" rx="13.5" fill="#D9D9D9" stroke="#D9D9D9" stroke-width="5"/>
<rect x="9" y="10" width="69" height="115" rx="9" stroke="#07090A" stroke-width="7" stroke-linejoin="round"/>
<path d="M32.4585 21.1108C34.0031 21.1108 35.4419 21.4917 36.7749 22.2534C38.1291 23.0363 39.2822 24.2529 40.2344 25.9033C40.2344 26.3477 40.0757 27.1411 39.7583 28.2837C39.4409 29.4263 39.2505 30.0928 39.187 30.2832C39.0601 30.5794 38.9648 30.8862 38.9014 31.2036C39.5996 32.0288 40.5306 32.9386 41.6943 33.9331C42.8792 34.9487 44.1064 35.8586 45.376 36.6626C46.6667 37.4666 47.8092 38.0062 48.8037 38.2812C49.2269 38.1966 49.5972 38.0908 49.9146 37.9639C50.2319 37.8581 50.5176 37.6571 50.7715 37.3608C50.9408 36.5356 51.0254 35.647 51.0254 34.6948C51.0254 32.1981 50.1685 29.0348 48.4546 25.2051C49.4914 24.3164 50.7715 23.5758 52.2949 22.9834C53.8395 22.4121 55.4476 22.1265 57.1191 22.1265C57.5 22.1265 57.7856 22.137 57.9761 22.1582C58.8436 23.0257 59.8275 24.5174 60.9277 26.6333C62.0492 28.7703 62.6099 31.7008 62.6099 35.4248C62.6099 39.9951 61.7952 43.8037 60.166 46.8506C58.5579 49.8975 55.9025 51.4209 52.1997 51.4209C49.5549 51.4209 47.1956 50.5957 45.1221 48.9453C43.0485 47.3161 41.4193 45.5916 40.2344 43.772C39.0495 41.9523 37.8857 39.9316 36.7432 37.71H36.2671L35.3784 45.4858L38.9331 47.3901L38.5205 52.5952C37.4414 53.0184 36.4258 53.3464 35.4736 53.5791C34.5215 53.833 33.5482 53.96 32.5537 53.96C31.0726 53.96 29.7078 53.632 28.4595 52.9761C27.2111 52.3201 26.2166 51.4103 25.4761 50.2466C24.7355 49.104 24.3652 47.8345 24.3652 46.438C24.3652 44.4067 24.8942 42.312 25.9521 40.1538C27.0312 37.9956 28.4066 35.9115 30.0781 33.9014C28.4277 32.9492 27.1476 31.849 26.2378 30.6006C25.328 29.3522 24.8096 27.797 24.6826 25.9351C24.9365 24.9829 25.4443 24.1366 26.2061 23.396C26.9678 22.6766 27.8882 22.1159 28.9673 21.7139C30.0675 21.3118 31.2313 21.1108 32.4585 21.1108Z" fill="#07090A"/>
<circle cx="43.5" cy="96.5" r="18" fill="#F1C40F" stroke="#07090A"/>
<rect x="19.5" y="61.5" width="49" height="11" rx="1.5" fill="#07090A" stroke="#07090A"/>
</svg>
