<svg width="100" height="100" viewBox="0 0 100 100" fill="none" xmlns="http://www.w3.org/2000/svg">
<rect width="100" height="100" fill="black"/>
<path d="M62.5227 30.0114H56.6932C56.6932 27.8125 56.1307 25.9886 55.0057 24.5398C53.8977 23.0739 52.142 22.3409 49.7386 22.3409C48.2045 22.3409 46.9432 22.6222 45.9545 23.1847C44.983 23.7472 44.2585 24.4545 43.7812 25.3068C43.321 26.1591 43.0909 27.0114 43.0909 27.8636C43.0909 28.8864 43.3807 29.8494 43.9602 30.7528C44.5398 31.6392 45.2557 32.4403 46.108 33.1562C46.9602 33.8551 47.7955 34.4432 48.6136 34.9205L58.5341 40.75C59.1989 41.125 59.9574 41.6278 60.8097 42.2585C61.6619 42.8892 62.4801 43.6648 63.2642 44.5852C64.0483 45.4886 64.696 46.554 65.2074 47.7812C65.7358 49.0085 66 50.4148 66 52C66 53.2614 65.6676 54.5227 65.0028 55.7841C64.3551 57.0455 63.4858 58.1619 62.3949 59.1335C61.321 60.1051 60.1364 60.7955 58.8409 61.2045V61.3068C60.0682 62.3807 60.9716 63.625 61.5511 65.0398C62.1307 66.4375 62.4205 67.9545 62.4205 69.5909C62.4205 72.1136 61.8068 74.1847 60.5795 75.804C59.3523 77.4403 57.75 78.6506 55.7727 79.4347C53.7955 80.2358 51.6818 80.6364 49.4318 80.6364C46.7386 80.6364 44.3438 80.0994 42.2472 79.0256C40.1506 77.9688 38.5057 76.4517 37.3125 74.4744C36.1193 72.5142 35.5227 70.1705 35.5227 67.4432H41.4545C41.4545 69.9489 42.2045 71.8665 43.7045 73.196C45.2216 74.5426 47.1307 75.2159 49.4318 75.2159C51.3239 75.2159 52.9858 74.7472 54.4176 73.8097C55.8665 72.8892 56.5909 71.483 56.5909 69.5909C56.5909 68.2955 56.3011 67.2131 55.7216 66.3438C55.142 65.4744 54.4261 64.7415 53.5739 64.1449C52.7216 63.5483 51.8864 63.0114 51.0682 62.5341L41.1477 56.8068C40.483 56.4148 39.7244 55.9034 38.8722 55.2727C38.0199 54.642 37.2017 53.8665 36.4176 52.946C35.6335 52.0085 34.9773 50.9261 34.4489 49.6989C33.9375 48.4545 33.6818 47.0398 33.6818 45.4545C33.6818 44.2273 33.9886 42.9744 34.6023 41.696C35.2159 40.4176 36.0597 39.2756 37.1335 38.2699C38.2074 37.2642 39.4432 36.5568 40.8409 36.1477V35.9432C39.767 34.8693 38.8977 33.6676 38.233 32.3381C37.5852 30.9915 37.2614 29.5 37.2614 27.8636C37.2614 25.75 37.7983 23.875 38.8722 22.2386C39.946 20.5852 41.4205 19.2898 43.2955 18.3523C45.1705 17.3977 47.3182 16.9205 49.7386 16.9205C52.3636 16.9205 54.6307 17.483 56.5398 18.608C58.4489 19.7159 59.9233 21.2585 60.9631 23.2358C62.0028 25.196 62.5227 27.4545 62.5227 30.0114ZM60.375 52C60.375 51.0114 60.1449 50.108 59.6847 49.2898C59.2244 48.4545 58.6278 47.7131 57.8949 47.0653C57.1619 46.4006 56.3864 45.8295 55.5682 45.3523L45.5455 39.5227C44.7955 39.0795 43.9261 39.071 42.9375 39.4972C41.9659 39.9233 41.1136 40.6648 40.3807 41.7216C39.6648 42.7784 39.3068 44.0227 39.3068 45.4545C39.3068 47.0909 39.8011 48.4375 40.7898 49.4943C41.7955 50.5341 42.9375 51.4375 44.2159 52.2045L53.7273 57.7273C54.4432 58.1364 55.321 58.1364 56.3608 57.7273C57.4176 57.3182 58.3466 56.6108 59.1477 55.6051C59.9659 54.5994 60.375 53.3977 60.375 52Z" fill="white"/>
</svg>
